<mxfile host="app.diagrams.net" modified="2023-09-03T09:12:50.652Z" agent="Mozilla/5.0 (Windows NT 10.0; Win64; x64) AppleWebKit/537.36 (KHTML, like Gecko) Chrome/116.0.0.0 Safari/537.36" version="21.7.2" etag="SDPV8S6zj6jiGB1SUkG5" type="github">
  <diagram name="第 1 页" id="xxZ4tB6B63VdPQF28gai">
    <mxGraphModel>
      <root>
        <mxCell id="0" />
        <mxCell id="1" parent="0" />
      </root>
    </mxGraphModel>
  </diagram>
</mxfile>
